<svg xmlns="http://www.w3.org/2000/svg" viewBox="0 0 92.24 23.35"><defs><style>.cls-1,.cls-2{fill:#ed1e25;stroke:#e8e613;stroke-miterlimit:10;}.cls-1{stroke-width:0.5px;}.cls-2{stroke-width:0.25px;}</style></defs><title>PlayButton</title><g id="Layer_2" data-name="Layer 2"><g id="Layer_1-2" data-name="Layer 1"><path class="cls-1" d="M3.79.25a.77.77,0,0,1,.6.35,3,3,0,0,1,.48,1,7.63,7.63,0,0,1,.3,1.39,11.24,11.24,0,0,1,.11,1.67,12.7,12.7,0,0,1-.1,1.69,7.22,7.22,0,0,1-.3,1.34,2.5,2.5,0,0,1-.48.88.78.78,0,0,1-.61.32h-2v5.3H.25V.25Zm-2,6.84H3.15c.46,0,.7-.84.7-2.51S3.61,2,3.15,2H1.76Z"/><path class="cls-1" d="M11.36.25a1.39,1.39,0,0,1,1.33.9,7.31,7.31,0,0,1,.43,2.95A7.33,7.33,0,0,1,12.9,6a2.08,2.08,0,0,1-.77,1.19,2.11,2.11,0,0,1,.43.36,2,2,0,0,1,.32.52,3.15,3.15,0,0,1,.2.74,5.82,5.82,0,0,1,.08,1v4.37H11.72V10.77c0-1.77-.24-2.65-.71-2.65H9.66v6H8.15V.25ZM9.66,6.4H11c.22,0,.39-.2.52-.59a5.65,5.65,0,0,0,.19-1.59,5.81,5.81,0,0,0-.19-1.63c-.13-.4-.3-.6-.52-.6H9.66Z"/><path class="cls-1" d="M20.94.25V2H17.66V6.32h2.39V8H17.66v4.41h3.28v1.71H16.13V.25Z"/><path class="cls-1" d="M28.57.25V2H26a.38.38,0,0,0-.29.15,1.43,1.43,0,0,0-.21.43,3.32,3.32,0,0,0-.13.63,5.74,5.74,0,0,0-.05.74,4.47,4.47,0,0,0,.19,1.45c.12.36.29.55.49.55h1.32a1,1,0,0,1,.7.29,2.34,2.34,0,0,1,.5.81,5.25,5.25,0,0,1,.31,1.23,12.24,12.24,0,0,1,.1,1.55,12.89,12.89,0,0,1-.11,1.7,7.37,7.37,0,0,1-.32,1.36,2.92,2.92,0,0,1-.48.92.84.84,0,0,1-.63.34H24.16V12.43h2.61a.38.38,0,0,0,.31-.18,1.72,1.72,0,0,0,.24-.49,4.12,4.12,0,0,0,.14-.73,8.67,8.67,0,0,0,0-1.86,1.88,1.88,0,0,0-.19-.63.83.83,0,0,0-.34-.33,1.28,1.28,0,0,0-.55-.11h-.84a1,1,0,0,1-.71-.28A2.13,2.13,0,0,1,24.31,7,5.17,5.17,0,0,1,24,5.82a10.72,10.72,0,0,1-.1-1.57A10.91,10.91,0,0,1,24,2.7a6.42,6.42,0,0,1,.3-1.27,2.77,2.77,0,0,1,.47-.86.83.83,0,0,1,.62-.32Z"/><path class="cls-1" d="M36.45.25V2H33.9a.4.4,0,0,0-.3.15,1.43,1.43,0,0,0-.21.43,3.32,3.32,0,0,0-.13.63,5.74,5.74,0,0,0,0,.74,4.76,4.76,0,0,0,.19,1.45c.12.36.29.55.5.55h1.31a1,1,0,0,1,.7.29,2.2,2.2,0,0,1,.5.81,5.25,5.25,0,0,1,.31,1.23,10.63,10.63,0,0,1,.1,1.55,12.89,12.89,0,0,1-.11,1.7,7.37,7.37,0,0,1-.32,1.36,2.92,2.92,0,0,1-.48.92.84.84,0,0,1-.62.34H32V12.43h2.61a.38.38,0,0,0,.31-.18,1.49,1.49,0,0,0,.24-.49,4.12,4.12,0,0,0,.14-.73,6.43,6.43,0,0,0,0-.9,8.44,8.44,0,0,0,0-1,1.88,1.88,0,0,0-.19-.63.77.77,0,0,0-.34-.33,1.25,1.25,0,0,0-.55-.11h-.84a1,1,0,0,1-.71-.28A2.13,2.13,0,0,1,32.19,7a5.17,5.17,0,0,1-.32-1.21,10.72,10.72,0,0,1-.1-1.57,10.91,10.91,0,0,1,.1-1.55,6.38,6.38,0,0,1,.31-1.27,2.41,2.41,0,0,1,.47-.86.81.81,0,0,1,.61-.32Z"/><path class="cls-1" d="M52.22.25V2H49.66a.36.36,0,0,0-.29.15,1.23,1.23,0,0,0-.22.43A3.32,3.32,0,0,0,49,3.2a5.8,5.8,0,0,0,0,.74,4.8,4.8,0,0,0,.18,1.45c.13.36.29.55.5.55H51a1,1,0,0,1,.7.29,2.35,2.35,0,0,1,.51.81,5.83,5.83,0,0,1,.3,1.23,10.63,10.63,0,0,1,.1,1.55,11.38,11.38,0,0,1-.11,1.7,7.41,7.41,0,0,1-.31,1.36,2.92,2.92,0,0,1-.49.92.82.82,0,0,1-.62.34H47.8V12.43h2.62a.39.39,0,0,0,.31-.18,1.49,1.49,0,0,0,.23-.49,4.06,4.06,0,0,0,.15-.73,8.52,8.52,0,0,0,0-.9,6.62,6.62,0,0,0,0-1,1.89,1.89,0,0,0-.18-.63.79.79,0,0,0-.35-.33A1.2,1.2,0,0,0,50,8.1h-.85a1,1,0,0,1-.71-.28A2.26,2.26,0,0,1,48,7a5.19,5.19,0,0,1-.31-1.21,10.64,10.64,0,0,1-.11-1.57,10.87,10.87,0,0,1,.11-1.55,6.42,6.42,0,0,1,.3-1.27,2.77,2.77,0,0,1,.47-.86A.81.81,0,0,1,49,.25Z"/><path class="cls-1" d="M60.27.25V2H57.75a.35.35,0,0,0-.29.17,1.88,1.88,0,0,0-.22.45,4.73,4.73,0,0,0-.14.66,6.84,6.84,0,0,0-.05.79v6.31a6.36,6.36,0,0,0,.05.77,5.44,5.44,0,0,0,.14.66,1.41,1.41,0,0,0,.22.46.34.34,0,0,0,.29.17h2.52v1.71H57.1a.82.82,0,0,1-.61-.3A2.42,2.42,0,0,1,56,13a5.57,5.57,0,0,1-.3-1.19,9.84,9.84,0,0,1-.1-1.48V4.06a10.21,10.21,0,0,1,.1-1.5A5.91,5.91,0,0,1,56,1.35,2.58,2.58,0,0,1,56.5.54a.82.82,0,0,1,.6-.29Z"/><path class="cls-1" d="M66.53.25a1.41,1.41,0,0,1,1.34.9,7.53,7.53,0,0,1,.42,2.95A6.9,6.9,0,0,1,68.07,6a2.08,2.08,0,0,1-.77,1.19,2.11,2.11,0,0,1,.43.36,1.77,1.77,0,0,1,.32.52,2.73,2.73,0,0,1,.2.74,5.82,5.82,0,0,1,.08,1v4.37H66.89V10.77c0-1.77-.24-2.65-.71-2.65H64.83v6H63.32V.25ZM64.83,6.4h1.38c.22,0,.39-.2.52-.59a5.65,5.65,0,0,0,.19-1.59,5.81,5.81,0,0,0-.19-1.63c-.13-.4-.3-.6-.52-.6H64.83Z"/><path class="cls-1" d="M76.11.25V2H72.83V6.32h2.39V8H72.83v4.41h3.28v1.71H71.3V.25Z"/><path class="cls-1" d="M84,.25V2H80.71V6.32H83.1V8H80.71v4.41H84v1.71H79.18V.25Z"/><path class="cls-1" d="M88.44.25,90.81,10.7V.25H92V14.14h-1.7L88.11,4.82v9.32H86.94V.25Z"/><path class="cls-2" d="M37.45,16.45v1.07h.73v.65h-.73v2.58a.38.38,0,0,0,.06.18.13.13,0,0,0,.12.07l.23,0v.63h-.38a.87.87,0,0,1-.3,0,.37.37,0,0,1-.18-.17,1,1,0,0,1-.1-.34,4,4,0,0,1,0-.54V18.17h-.54v-.65h.54V16.45Z"/><path class="cls-2" d="M40.6,17.52a.54.54,0,0,1,.27.07.55.55,0,0,1,.19.23,1.42,1.42,0,0,1,.11.42,5.27,5.27,0,0,1,0,.63V20.3a5.45,5.45,0,0,1,0,.64,1.27,1.27,0,0,1-.11.41.45.45,0,0,1-.19.23.45.45,0,0,1-.27.07h-.78a.51.51,0,0,1-.28-.07.45.45,0,0,1-.19-.23,1.29,1.29,0,0,1-.1-.41,3.9,3.9,0,0,1,0-.64V18.87a3.77,3.77,0,0,1,0-.63,1.44,1.44,0,0,1,.1-.42.55.55,0,0,1,.19-.23.61.61,0,0,1,.28-.07Zm-.81,2.77a2.55,2.55,0,0,0,0,.56c0,.11.09.17.18.17h.4c.08,0,.14-.06.17-.17a2.38,2.38,0,0,0,.05-.55V18.87a2.18,2.18,0,0,0-.05-.53c0-.11-.09-.17-.17-.17H40c-.09,0-.14.06-.18.17a2.3,2.3,0,0,0,0,.53Z"/><path class="cls-2" d="M46.48,17.52a.61.61,0,0,1,.28.07.56.56,0,0,1,.19.23,1.57,1.57,0,0,1,.11.42,5.31,5.31,0,0,1,0,.64V20.3a5.45,5.45,0,0,1,0,.64,1.27,1.27,0,0,1-.11.41.45.45,0,0,1-.19.23.49.49,0,0,1-.28.07h-.77v1.57h-.56v-5.7ZM45.71,21h.59a.18.18,0,0,0,.11,0,.23.23,0,0,0,.07-.11.77.77,0,0,0,0-.2c0-.08,0-.19,0-.32V18.78a2.68,2.68,0,0,0,0-.34.38.38,0,0,0-.07-.18.19.19,0,0,0-.13-.07l-.21,0h-.39Z"/><path class="cls-2" d="M49.35,16.21V21H50v.63H48.15V21h.64V16.86h-.64v-.65Z"/><path class="cls-2" d="M52.4,17.52a.61.61,0,0,1,.28.06.46.46,0,0,1,.19.2,1.22,1.22,0,0,1,.1.4,3.57,3.57,0,0,1,0,.62v2.85H51.59a.33.33,0,0,1-.22-.09,1.14,1.14,0,0,1-.17-.27,1.89,1.89,0,0,1-.1-.41,2.64,2.64,0,0,1,0-.51,2.78,2.78,0,0,1,0-.51,2.05,2.05,0,0,1,.1-.41,1,1,0,0,1,.17-.28.3.3,0,0,1,.22-.1h.85v-.35a1.13,1.13,0,0,0,0-.44.18.18,0,0,0-.17-.11h-.87v-.65ZM52,19.7a.48.48,0,0,0-.18,0,.25.25,0,0,0-.12.11.47.47,0,0,0-.06.19,2.35,2.35,0,0,0,0,.28c0,.47,0,.71.14.71h.69V19.7Z"/><path class="cls-2" d="M54.55,17.52l.5,2.69h0l.5-2.69h.48l-1.17,5.7h-.5l.38-1.68-.83-4Z"/></g></g></svg>