<svg xmlns="http://www.w3.org/2000/svg" viewBox="0 0 161.1 226.59"><defs><style>.cls-1,.cls-2,.cls-4{fill:none;stroke-width:10px;}.cls-1{stroke:#a63895;}.cls-1,.cls-2,.cls-3,.cls-4{stroke-miterlimit:10;}.cls-2{stroke:#fcb219;}.cls-3{fill:#eee81b;stroke:#30c2e0;stroke-width:0.25px;}.cls-4{stroke:#b82025;}</style></defs><title>Alkuruutu2</title><g id="Layer_2" data-name="Layer 2"><g id="Layer_1-2" data-name="Layer 1"><polygon class="cls-1" points="146.32 161.81 79.84 208.51 14 160.9 14.65 66.58 81.14 19.87 146.97 67.49 146.32 161.81"/><polygon class="cls-2" points="155.34 167.39 79.81 220.45 5.02 166.35 5.76 59.2 81.29 6.14 156.08 60.23 155.34 167.39"/><path class="cls-3" d="M70.74,35.76V41H73.4v.74H69.58v-6Z"/><path class="cls-3" d="M78.19,40.51H76.86l-.18,1.26H75.52l1.25-6h1.51l1.25,6H78.38ZM77,39.76h1.11l-.5-3.25h-.11Z"/><path class="cls-3" d="M85.21,35.76v.75h-2a.34.34,0,0,0-.22.07.4.4,0,0,0-.16.18,1.09,1.09,0,0,0-.11.27,1.69,1.69,0,0,0,0,.33,1.26,1.26,0,0,0,.14.62.43.43,0,0,0,.38.24h1a1.12,1.12,0,0,1,.53.12,1.44,1.44,0,0,1,.39.35,1.66,1.66,0,0,1,.23.54,2.8,2.8,0,0,1,.08.67,3.33,3.33,0,0,1-.08.73,2,2,0,0,1-.25.59,1.3,1.3,0,0,1-.37.4.81.81,0,0,1-.48.15H81.83V41h2a.41.41,0,0,0,.24-.08.63.63,0,0,0,.18-.21,1.33,1.33,0,0,0,.11-.32,2.34,2.34,0,0,0,0-.39,2.27,2.27,0,0,0,0-.41.51.51,0,0,0-.15-.27A.51.51,0,0,0,84,39.2a1.66,1.66,0,0,0-.42,0h-.64a1.21,1.21,0,0,1-.55-.13,1.06,1.06,0,0,1-.39-.34,1.67,1.67,0,0,1-.25-.52,2.89,2.89,0,0,1,0-1.35,2,2,0,0,1,.24-.55,1.19,1.19,0,0,1,.36-.38.83.83,0,0,1,.47-.13Z"/><path class="cls-3" d="M91.44,35.76v.75H90.19v5.26H89.05V36.51H87.74v-.75Z"/><path class="cls-3" d="M62.54,52.63V54H59a.58.58,0,0,0-.38.13,1.09,1.09,0,0,0-.29.34,2.09,2.09,0,0,0-.2.5,2.9,2.9,0,0,0-.07.6V60.3a2.25,2.25,0,0,0,.07.58,1.67,1.67,0,0,0,.19.5,1.14,1.14,0,0,0,.3.35.65.65,0,0,0,.38.13h1.83V58.51H59.09v-1.3H62.7v5.94H58.15a1.62,1.62,0,0,1-.82-.22,1.93,1.93,0,0,1-.63-.61,3.09,3.09,0,0,1-.41-.9,4.46,4.46,0,0,1-.14-1.12V55.52a4.14,4.14,0,0,1,.15-1.14,3.38,3.38,0,0,1,.41-.92,1.93,1.93,0,0,1,.63-.61,1.54,1.54,0,0,1,.81-.22Z"/><path class="cls-3" d="M73.21,52.63V54h-4.4v3.27H72v1.29h-3.2v3.35h4.4v1.29H66.77V52.63Z"/><path class="cls-3" d="M79.16,52.63l3.17,7.91V52.63h1.59V63.15H81.64l-2.91-7.06v7.06H77.15V52.63Z"/><path class="cls-3" d="M94.33,57.6v1.33H87.85V57.6Z"/><path class="cls-3" d="M100.28,52.63l1.48,3.75h.07l1.55-3.75h1.91l-2.42,5.12,2.41,5.4h-2.11L101.7,59.2h-.07l-1.53,3.95H98l2.55-5.38-2.4-5.14Z"/><path class="cls-3" d="M30.65,65.65V67H27.23a.65.65,0,0,0-.39.12.91.91,0,0,0-.29.32,2.08,2.08,0,0,0-.17.48,2.47,2.47,0,0,0-.06.56,2.11,2.11,0,0,0,.25,1.1.74.74,0,0,0,.66.41H29a2,2,0,0,1,.94.22,2.08,2.08,0,0,1,.67.62,2.82,2.82,0,0,1,.41.93,4.81,4.81,0,0,1,.14,1.17A5.31,5.31,0,0,1,31,74.18a3.7,3.7,0,0,1-.42,1,2.32,2.32,0,0,1-.65.7,1.48,1.48,0,0,1-.84.25H24.75V74.87h3.5a.67.67,0,0,0,.41-.13,1.35,1.35,0,0,0,.32-.38,2,2,0,0,0,.19-.55,3.64,3.64,0,0,0,.07-.68,3,3,0,0,0-.08-.73,1,1,0,0,0-.24-.48,1.07,1.07,0,0,0-.46-.25,3,3,0,0,0-.73-.08H26.59a2.11,2.11,0,0,1-.95-.21,2,2,0,0,1-.69-.6,2.59,2.59,0,0,1-.42-.92,4.33,4.33,0,0,1-.15-1.18,4.49,4.49,0,0,1,.15-1.18,3,3,0,0,1,.4-1,2,2,0,0,1,.63-.65,1.49,1.49,0,0,1,.83-.24Z"/><path class="cls-3" d="M41.56,65.65V67H39.37v9.2h-2V67H35.09V65.65Z"/><path class="cls-3" d="M50,74H47.72l-.32,2.2h-2l2.18-10.51H50.2l2.19,10.51h-2Zm-2.12-1.31h1.93L49,67h-.21Z"/><path class="cls-3" d="M60.38,65.65a2.19,2.19,0,0,1,1.79.68,3.48,3.48,0,0,1,.56,2.23,3.1,3.1,0,0,1-.29,1.4,1.85,1.85,0,0,1-1,.9,3.12,3.12,0,0,1,.58.28,1.45,1.45,0,0,1,.43.39,2,2,0,0,1,.27.56,2.8,2.8,0,0,1,.1.76v3.31H60.86V73.61c0-1.34-.32-2-1-2H58.1v4.55h-2V65.65ZM58.1,70.3H60a.79.79,0,0,0,.7-.44,2.59,2.59,0,0,0,.25-1.21,2.7,2.7,0,0,0-.25-1.24A.79.79,0,0,0,60,67H58.1Z"/><path class="cls-3" d="M73.28,65.65V67H68.75V70.4h3.33v1.28H68.75v4.48H66.69V65.65Z"/><path class="cls-3" d="M83.77,65.65V67h-2.2v7.91h2.2v1.29H77.31V74.87h2.23V67H77.31V65.65Z"/><path class="cls-3" d="M94.2,65.65V67H90.66a.56.56,0,0,0-.37.13,1.24,1.24,0,0,0-.3.34,2.17,2.17,0,0,0-.19.51,2.32,2.32,0,0,0-.07.59v4.78a2.78,2.78,0,0,0,.06.58,1.86,1.86,0,0,0,.19.5,1,1,0,0,0,.3.35.6.6,0,0,0,.38.13H92.5V71.53H90.75v-1.3h3.61v5.93H89.82a1.56,1.56,0,0,1-.83-.22,1.93,1.93,0,0,1-.63-.61,2.86,2.86,0,0,1-.4-.9,4,4,0,0,1-.15-1.12V68.53A4.11,4.11,0,0,1,88,67.4a3.24,3.24,0,0,1,.41-.92,2,2,0,0,1,.63-.61,1.55,1.55,0,0,1,.82-.22Z"/><path class="cls-3" d="M100.27,65.65v4.59h2.82V65.65h2V76.16h-2V71.53h-2.82v4.63H98.21V65.65Z"/><path class="cls-3" d="M115.44,65.65V67h-2.18v9.2h-2V67H109V65.65Z"/><path class="cls-3" d="M126,65.65V67h-4.4v3.28h3.21v1.29h-3.21v3.34H126v1.29h-6.44V65.65Z"/><path class="cls-3" d="M134.26,65.65a2.18,2.18,0,0,1,1.79.68,3.47,3.47,0,0,1,.57,2.23,3.1,3.1,0,0,1-.3,1.4,1.85,1.85,0,0,1-1,.9,3.12,3.12,0,0,1,.58.28,1.45,1.45,0,0,1,.43.39,1.72,1.72,0,0,1,.27.56,2.46,2.46,0,0,1,.1.76v3.31h-1.93V73.61c0-1.34-.32-2-1-2H132v4.55h-2V65.65ZM132,70.3h1.85a.78.78,0,0,0,.7-.44,2.47,2.47,0,0,0,.25-1.21,2.58,2.58,0,0,0-.25-1.24.77.77,0,0,0-.7-.45H132Z"/><path class="cls-3" d="M22.15,88.39a.92.92,0,0,1,.76.29,1.5,1.5,0,0,1,.24,1,1.46,1.46,0,0,1-.12.6.76.76,0,0,1-.44.38l.24.12a.63.63,0,0,1,.19.17.77.77,0,0,1,.12.24,1.49,1.49,0,0,1,0,.33v1.41h-.83V91.8c0-.57-.13-.86-.41-.86h-.77v2H20.3v-4.5Zm-1,2H22a.32.32,0,0,0,.3-.19,1.07,1.07,0,0,0,.11-.51,1.1,1.1,0,0,0-.11-.53A.33.33,0,0,0,22,89h-.79Z"/><path class="cls-3" d="M27,89.32a.68.68,0,0,1,.56.25,1.27,1.27,0,0,1,.21.81,1.33,1.33,0,0,1-.19.79.7.7,0,0,1-.58.24H25.68v.32a1.47,1.47,0,0,0,0,.32.43.43,0,0,0,.06.19.25.25,0,0,0,.14.08.72.72,0,0,0,.22,0h1.3v.55H25.73a1.25,1.25,0,0,1-.42-.06.59.59,0,0,1-.29-.2.86.86,0,0,1-.16-.36,2.15,2.15,0,0,1-.05-.55V90.48a2.16,2.16,0,0,1,.05-.54.86.86,0,0,1,.16-.36.66.66,0,0,1,.29-.2,1.25,1.25,0,0,1,.42-.06ZM25.68,90.9h.93l.16,0a.23.23,0,0,0,.1-.07.5.5,0,0,0,.05-.16,1.1,1.1,0,0,0,0-.28,1.86,1.86,0,0,0,0-.26.37.37,0,0,0-.05-.15.21.21,0,0,0-.1-.06l-.17,0H26a.4.4,0,0,0-.17,0,.21.21,0,0,0-.11.1.56.56,0,0,0,0,.18,2.27,2.27,0,0,0,0,.28Z"/><path class="cls-3" d="M30.08,89.32,30.77,92h0l.69-2.71h.89l-1,3.57h-1.1l-1-3.57Z"/><path class="cls-3" d="M36,89.32a.69.69,0,0,1,.56.25,1.27,1.27,0,0,1,.21.81,1.25,1.25,0,0,1-.2.79.69.69,0,0,1-.57.24H34.72v.32a2.58,2.58,0,0,0,0,.32.42.42,0,0,0,.07.19.25.25,0,0,0,.14.08.68.68,0,0,0,.21,0h1.31v.55h-1.7a1.33,1.33,0,0,1-.42-.06.56.56,0,0,1-.28-.2,1,1,0,0,1-.17-.36,2.72,2.72,0,0,1,0-.55V90.48a2.76,2.76,0,0,1,0-.54,1,1,0,0,1,.17-.36.63.63,0,0,1,.28-.2,1.33,1.33,0,0,1,.42-.06ZM34.72,90.9h.94l.15,0a.21.21,0,0,0,.11-.07.5.5,0,0,0,0-.16,1.91,1.91,0,0,0,0-.28,1.61,1.61,0,0,0,0-.26.21.21,0,0,0,0-.15.14.14,0,0,0-.1-.06l-.16,0h-.6a.38.38,0,0,0-.16,0,.21.21,0,0,0-.11.1.39.39,0,0,0,0,.18,2,2,0,0,0,0,.28Z"/><path class="cls-3" d="M40.37,89.32a1.67,1.67,0,0,1,.42.05.56.56,0,0,1,.29.17,1,1,0,0,1,.16.35,2.58,2.58,0,0,1,0,.53v2.47h-.86V90.48a2.53,2.53,0,0,0,0-.29.38.38,0,0,0-.06-.18.21.21,0,0,0-.11-.1.33.33,0,0,0-.15,0h-.86v3h-.86V89.32Z"/><path class="cls-3" d="M45.8,89.32v3.76a2.28,2.28,0,0,1,0,.56.76.76,0,0,1-.16.35.56.56,0,0,1-.28.2,1.35,1.35,0,0,1-.43.06h-1.4v-.56h.77a1.78,1.78,0,0,0,.35,0,.4.4,0,0,0,.21-.07.34.34,0,0,0,.11-.17,1.15,1.15,0,0,0,0-.3v-.24H43.84a1.35,1.35,0,0,1-.43-.06.55.55,0,0,1-.29-.2.86.86,0,0,1-.17-.36,2.72,2.72,0,0,1-.05-.55V90.49a2.29,2.29,0,0,1,.06-.56.86.86,0,0,1,.17-.36.61.61,0,0,1,.28-.19,1.35,1.35,0,0,1,.43-.06Zm-2,2.45a1.09,1.09,0,0,0,.07.45.3.3,0,0,0,.28.12H45V89.88h-.6l-.29,0a.33.33,0,0,0-.18.08.35.35,0,0,0-.09.16,1.09,1.09,0,0,0,0,.28Z"/><path class="cls-3" d="M49.58,89.32a.68.68,0,0,1,.56.25,1.27,1.27,0,0,1,.21.81,1.25,1.25,0,0,1-.2.79.69.69,0,0,1-.57.24H48.29v.32a2.58,2.58,0,0,0,0,.32.42.42,0,0,0,.07.19.25.25,0,0,0,.14.08.68.68,0,0,0,.21,0H50v.55h-1.7a1.33,1.33,0,0,1-.42-.06.56.56,0,0,1-.28-.2.86.86,0,0,1-.16-.36,2.09,2.09,0,0,1-.06-.55V90.48a2.12,2.12,0,0,1,.06-.54.86.86,0,0,1,.16-.36.63.63,0,0,1,.28-.2,1.33,1.33,0,0,1,.42-.06ZM48.29,90.9h.94l.15,0a.21.21,0,0,0,.11-.07.5.5,0,0,0,0-.16,1.91,1.91,0,0,0,0-.28,1.61,1.61,0,0,0,0-.26.21.21,0,0,0,0-.15.14.14,0,0,0-.1-.06l-.16,0h-.6a.38.38,0,0,0-.16,0,.21.21,0,0,0-.11.1.39.39,0,0,0,0,.18,2,2,0,0,0,0,.28Z"/><path class="cls-3" d="M58.42,92h-1l-.14.94h-.87l.94-4.5h1.13l.94,4.5h-.86Zm-.91-.56h.83L58,89h-.09Z"/><path class="cls-3" d="M63,89.32a1.75,1.75,0,0,1,.43.05.53.53,0,0,1,.28.17.71.71,0,0,1,.16.35,2,2,0,0,1,0,.53v2.47h-.85V90.48a1.28,1.28,0,0,0,0-.29A.56.56,0,0,0,63,90a.26.26,0,0,0-.11-.1.33.33,0,0,0-.15,0h-.86v3H61V89.32Z"/><path class="cls-3" d="M67.51,89.32a1.67,1.67,0,0,1,.42.05.56.56,0,0,1,.29.17,1,1,0,0,1,.16.35,2.58,2.58,0,0,1,.05.53v2.47h-.86V90.48a2.53,2.53,0,0,0,0-.29A.38.38,0,0,0,67.5,90a.21.21,0,0,0-.11-.1.33.33,0,0,0-.15,0h-.86v3h-.86V89.32Z"/><path class="cls-3" d="M71.94,89.32v3h1v.55H70.08v-.55h1V89.88h-1v-.56ZM72,88.18v.69H71v-.69Z"/><path class="cls-3" d="M75.43,88.18v1.14h1.12a1.84,1.84,0,0,1,.44.05.68.68,0,0,1,.28.18.84.84,0,0,1,.17.34,2.58,2.58,0,0,1,0,.53v2.47h-.87V90.48a1.28,1.28,0,0,0,0-.29.56.56,0,0,0,0-.18.24.24,0,0,0-.1-.1.41.41,0,0,0-.16,0h-.86v3h-.87V88.18Z"/><path class="cls-3" d="M81,89.32v3h1v.55H79.13v-.55h1V89.88h-1v-.56Zm.08-1.14v.69H80v-.69Z"/><path class="cls-3" d="M85.49,88.18v4.16h1v.55H83.65v-.55h1v-3.6h-1v-.56Z"/><path class="cls-3" d="M90.15,89.32a1.69,1.69,0,0,1,.43.05.56.56,0,0,1,.29.17.71.71,0,0,1,.16.35,2,2,0,0,1,0,.53v2.47H88.91a.62.62,0,0,1-.33-.08.78.78,0,0,1-.25-.23,1,1,0,0,1-.17-.35,1.63,1.63,0,0,1-.06-.45,1.61,1.61,0,0,1,.06-.44,1.19,1.19,0,0,1,.17-.36.82.82,0,0,1,.25-.24.73.73,0,0,1,.33-.08h1.31v-.31a.61.61,0,0,0-.08-.37.29.29,0,0,0-.26-.1H88.55v-.56Zm-.63,1.88a1.17,1.17,0,0,0-.29,0,.39.39,0,0,0-.17.09.28.28,0,0,0-.09.17.83.83,0,0,0,0,.24c0,.41.08.61.22.61h1V91.2Z"/><path class="cls-3" d="M94.41,88.39v.93h1.12v.56H94.41v2a2.36,2.36,0,0,0,0,.29.24.24,0,0,0,.08.15.43.43,0,0,0,.19.06H95v.55h-.58a1.87,1.87,0,0,1-.45,0,.62.62,0,0,1-.29-.15.57.57,0,0,1-.15-.29,2.81,2.81,0,0,1,0-.46V89.88H92.7v-.56h.83v-.93Z"/><path class="cls-3" d="M99.08,89.32v3h1v.55H97.22v-.55h1V89.88h-1v-.56Zm.07-1.14v.69h-1v-.69Z"/><path class="cls-3" d="M103.76,89.32a1.22,1.22,0,0,1,.41.06.66.66,0,0,1,.29.2.86.86,0,0,1,.17.36,2.12,2.12,0,0,1,.06.54v1.24a2.09,2.09,0,0,1-.06.55.86.86,0,0,1-.16.36.63.63,0,0,1-.29.2,1.33,1.33,0,0,1-.42.06h-1.19a1.35,1.35,0,0,1-.43-.06.55.55,0,0,1-.29-.2.75.75,0,0,1-.16-.36,2.15,2.15,0,0,1,0-.55V90.48a2.16,2.16,0,0,1,0-.54.75.75,0,0,1,.16-.36.61.61,0,0,1,.29-.2,1.35,1.35,0,0,1,.43-.06Zm-1.25,2.39a1.12,1.12,0,0,0,.08.48.27.27,0,0,0,.26.15h.62a.26.26,0,0,0,.26-.15,1.07,1.07,0,0,0,.08-.47V90.48a1.05,1.05,0,0,0-.08-.46.27.27,0,0,0-.26-.14h-.62a.28.28,0,0,0-.26.14,1.05,1.05,0,0,0-.08.46Z"/><path class="cls-3" d="M108.22,89.32a1.67,1.67,0,0,1,.42.05.56.56,0,0,1,.29.17,1,1,0,0,1,.16.35,2.58,2.58,0,0,1,0,.53v2.47h-.86V90.48a2.53,2.53,0,0,0,0-.29.38.38,0,0,0-.06-.18.21.21,0,0,0-.11-.1.33.33,0,0,0-.15,0h-.86v3h-.86V89.32Z"/><path class="cls-3" d="M117.22,92h-1l-.13.94h-.87l.93-4.5h1.14l.93,4.5h-.86Zm-.9-.56h.82L116.77,89h-.09Z"/><path class="cls-3" d="M122.64,88.39V89h-.94v3.94h-.85V89h-1v-.56Z"/><path class="cls-3" d="M127.16,88.39V89h-.93v3.94h-.86V89h-1v-.56Z"/><path class="cls-3" d="M130.79,92h-1l-.13.94h-.87l.93-4.5h1.14l.93,4.5h-.86Zm-.9-.56h.82L130.34,89h-.09Z"/><path class="cls-3" d="M136.16,88.39V89h-1.44a.25.25,0,0,0-.17.06.44.44,0,0,0-.13.14,1.43,1.43,0,0,0-.08.22,1.09,1.09,0,0,0,0,.26v2a1,1,0,0,0,0,.25,1,1,0,0,0,.08.21.34.34,0,0,0,.13.16.31.31,0,0,0,.17,0h1.44v.55h-1.82a.68.68,0,0,1-.35-.09,1,1,0,0,1-.27-.26,1.39,1.39,0,0,1-.17-.39,1.86,1.86,0,0,1-.06-.48v-2a1.88,1.88,0,0,1,.06-.49,1.32,1.32,0,0,1,.18-.4.84.84,0,0,1,.27-.26.64.64,0,0,1,.34-.09Z"/><path class="cls-3" d="M138.73,88.39V90.1h.06L140,88.39h.9l-1.34,2,1.32,2.53h-1l-1.08-2.1h-.07v2.09h-.87v-4.5Z"/><path class="cls-3" d="M23.1,128.85a.86.86,0,0,1,.48.13,1.21,1.21,0,0,1,.38.37,2,2,0,0,1,.24.55,2.43,2.43,0,0,1,.09.68v2.86a2.86,2.86,0,0,1-.08.67,1.91,1.91,0,0,1-.25.54,1.27,1.27,0,0,1-.37.36.92.92,0,0,1-.49.13H20.27v-6.29Zm-1.62,5.52h1.11a.34.34,0,0,0,.23-.08.51.51,0,0,0,.17-.21,1.17,1.17,0,0,0,.12-.3,1.86,1.86,0,0,0,0-.34v-2.86a2,2,0,0,0,0-.36,1.34,1.34,0,0,0-.12-.3.51.51,0,0,0-.17-.21.4.4,0,0,0-.23-.08H21.48Z"/><path class="cls-3" d="M29.57,130.15a1,1,0,0,1,.78.35,1.82,1.82,0,0,1,.29,1.13,1.76,1.76,0,0,1-.27,1.1.94.94,0,0,1-.8.34h-1.8v.44a2.86,2.86,0,0,0,0,.46.57.57,0,0,0,.1.26.27.27,0,0,0,.19.11,1.26,1.26,0,0,0,.3,0h1.82v.77H27.84a1.93,1.93,0,0,1-.58-.08.94.94,0,0,1-.4-.28,1.29,1.29,0,0,1-.23-.5,3.43,3.43,0,0,1-.07-.77v-1.73a3.43,3.43,0,0,1,.07-.77,1.36,1.36,0,0,1,.23-.5.94.94,0,0,1,.4-.28,1.93,1.93,0,0,1,.58-.08Zm-1.8,2.2h1.31a.72.72,0,0,0,.22,0,.28.28,0,0,0,.14-.1.56.56,0,0,0,.08-.22,3.84,3.84,0,0,0,0-.39,2,2,0,0,0,0-.37.4.4,0,0,0-.07-.21.22.22,0,0,0-.14-.08.75.75,0,0,0-.23,0h-.83a.83.83,0,0,0-.24,0,.27.27,0,0,0-.14.14.67.67,0,0,0-.08.25c0,.11,0,.24,0,.4Z"/><path class="cls-3" d="M36.68,130.15v.79H34.29a.39.39,0,0,0-.32.13.75.75,0,0,0-.11.46c0,.39.14.59.43.59h1.64a1,1,0,0,1,.47.11,1.12,1.12,0,0,1,.34.31A1.34,1.34,0,0,1,37,133a2,2,0,0,1,.08.56,2.08,2.08,0,0,1-.29,1.18,1,1,0,0,1-.86.41H33v-.77h2.66a.3.3,0,0,0,.25-.15,1,1,0,0,0,.09-.49.93.93,0,0,0-.09-.47.3.3,0,0,0-.25-.15H33.92a1.07,1.07,0,0,1-.49-.11,1,1,0,0,1-.35-.32,1.31,1.31,0,0,1-.2-.48,2.22,2.22,0,0,1-.07-.59,1.73,1.73,0,0,1,.29-1.08,1.09,1.09,0,0,1,.91-.38Z"/><path class="cls-3" d="M41.64,128.85v1.3h1.57v.79H41.64v2.71a4,4,0,0,0,0,.41.31.31,0,0,0,.11.21.47.47,0,0,0,.26.09h.5v.77h-.81a2.78,2.78,0,0,1-.64-.06.73.73,0,0,1-.4-.2.84.84,0,0,1-.21-.41,3.82,3.82,0,0,1,0-.65v-2.88H39.26v-.79h1.16v-1.3Z"/><path class="cls-3" d="M49.43,130.94H47.61a2,2,0,0,0-.37,0,.42.42,0,0,0-.23.12.66.66,0,0,0-.11.28,3.25,3.25,0,0,0,0,.5v3.28h-1.2v-3.47a1.44,1.44,0,0,1,.42-1.16,1.92,1.92,0,0,1,1.27-.36h2.07Z"/><path class="cls-3" d="M54.7,130.15a1.93,1.93,0,0,1,.58.08.94.94,0,0,1,.4.28,1.23,1.23,0,0,1,.24.5,3.37,3.37,0,0,1,.08.77v1.73a3.37,3.37,0,0,1-.08.77,1.29,1.29,0,0,1-.23.5.91.91,0,0,1-.41.28,1.93,1.93,0,0,1-.58.08H53a2,2,0,0,1-.6-.08.91.91,0,0,1-.41-.28,1.15,1.15,0,0,1-.22-.5,3.43,3.43,0,0,1-.07-.77v-1.73a3.43,3.43,0,0,1,.07-.77,1.21,1.21,0,0,1,.22-.5.91.91,0,0,1,.41-.28,2,2,0,0,1,.6-.08ZM53,133.49a1.56,1.56,0,0,0,.1.67.38.38,0,0,0,.37.21h.86a.37.37,0,0,0,.37-.21,1.46,1.46,0,0,0,.11-.65v-1.73a1.49,1.49,0,0,0-.11-.65.37.37,0,0,0-.37-.19h-.86a.39.39,0,0,0-.37.19,1.52,1.52,0,0,0-.1.65Z"/><path class="cls-3" d="M59.24,130.15l1.07,3.25h0l1.08-3.25h1L60,137H58.89l.81-2-1.77-4.86Z"/><path class="cls-3" d="M73.6,130.15a2.18,2.18,0,0,1,.61.07,1,1,0,0,1,.4.24,1.07,1.07,0,0,1,.22.48,3.18,3.18,0,0,1,.07.75v3.45h-3a1,1,0,0,1-.45-.11,1.13,1.13,0,0,1-.36-.33,1.39,1.39,0,0,1-.23-.49,2,2,0,0,1-.08-.62,2,2,0,0,1,.08-.61,1.59,1.59,0,0,1,.23-.51,1.13,1.13,0,0,1,.36-.33.89.89,0,0,1,.45-.12H73.7v-.43a.89.89,0,0,0-.11-.52.43.43,0,0,0-.36-.13H71.37v-.79Zm-.89,2.63a1.41,1.41,0,0,0-.39,0,.54.54,0,0,0-.25.13.46.46,0,0,0-.12.23,1.13,1.13,0,0,0,0,.34c0,.57.11.85.31.85h1.47v-1.59Z"/><path class="cls-3" d="M79.72,128.56v5.81h1.39v.77h-4v-.77h1.36v-5H77.16v-.79Z"/><path class="cls-3" d="M86,128.56v5.81h1.39v.77h-4v-.77h1.35v-5H83.48v-.79Z"/><path class="cls-3" d="M99.07,130.15a1,1,0,0,1,.78.35,2.44,2.44,0,0,1,0,2.23,1,1,0,0,1-.8.34h-1.8v.44c0,.19,0,.34,0,.46a.71.71,0,0,0,.1.26.29.29,0,0,0,.19.11,1.26,1.26,0,0,0,.3,0h1.83v.77H97.34a2,2,0,0,1-.59-.08.85.85,0,0,1-.39-.28,1.16,1.16,0,0,1-.23-.5,3.37,3.37,0,0,1-.08-.77v-1.73a3.37,3.37,0,0,1,.08-.77,1.22,1.22,0,0,1,.23-.5.85.85,0,0,1,.39-.28,2,2,0,0,1,.59-.08Zm-1.8,2.2h1.31a.68.68,0,0,0,.21,0,.24.24,0,0,0,.14-.1A.44.44,0,0,0,99,132a2.06,2.06,0,0,0,0-.39,3.41,3.41,0,0,0,0-.37A.73.73,0,0,0,99,131a.25.25,0,0,0-.14-.08.79.79,0,0,0-.23,0h-.84a.75.75,0,0,0-.23,0,.33.33,0,0,0-.15.14.53.53,0,0,0-.07.25,2.36,2.36,0,0,0,0,.4Z"/><path class="cls-3" d="M105.15,130.15a2.15,2.15,0,0,1,.6.07.86.86,0,0,1,.39.24,1.08,1.08,0,0,1,.23.48,3.82,3.82,0,0,1,.07.75v3.45h-1.2v-3.36a2.56,2.56,0,0,0,0-.42.57.57,0,0,0-.08-.25A.33.33,0,0,0,105,131a.66.66,0,0,0-.21,0h-1.2v4.2h-1.21v-5Z"/><path class="cls-3" d="M111.7,130.15a1,1,0,0,1,.78.35,1.82,1.82,0,0,1,.29,1.13,1.76,1.76,0,0,1-.27,1.1,1,1,0,0,1-.8.34h-1.8v.44a2.86,2.86,0,0,0,0,.46.57.57,0,0,0,.1.26.27.27,0,0,0,.19.11,1.26,1.26,0,0,0,.3,0h1.82v.77H110a1.93,1.93,0,0,1-.58-.08.94.94,0,0,1-.4-.28,1.29,1.29,0,0,1-.23-.5,3.43,3.43,0,0,1-.07-.77v-1.73a3.43,3.43,0,0,1,.07-.77,1.36,1.36,0,0,1,.23-.5.94.94,0,0,1,.4-.28,1.93,1.93,0,0,1,.58-.08Zm-1.8,2.2h1.31a.75.75,0,0,0,.22,0,.28.28,0,0,0,.14-.1.56.56,0,0,0,.08-.22,3.84,3.84,0,0,0,0-.39,3.41,3.41,0,0,0,0-.37.4.4,0,0,0-.07-.21.22.22,0,0,0-.14-.08.79.79,0,0,0-.23,0h-.83a.83.83,0,0,0-.24,0,.27.27,0,0,0-.14.14.53.53,0,0,0-.08.25c0,.11,0,.24,0,.4Z"/><path class="cls-3" d="M117.83,130.15a2.06,2.06,0,0,1,.6.07.88.88,0,0,1,.41.26,1,1,0,0,1,.22.47,3.15,3.15,0,0,1,.07.74v3.45h-1v-3.36c0-.17,0-.31,0-.42a.73.73,0,0,0-.08-.25.33.33,0,0,0-.15-.14.73.73,0,0,0-.22,0h-.19v4.2h-.82v-4.2h-.55v4.2H115v-5Z"/><path class="cls-3" d="M124,130.15v4.22h1.36v.77h-4v-.77h1.38v-3.43h-1.38v-.79Zm.11-1.59v1h-1.43v-1Z"/><path class="cls-3" d="M130.65,130.15a1,1,0,0,1,.78.35,2.36,2.36,0,0,1,0,2.23.94.94,0,0,1-.8.34h-1.79v.44a3,3,0,0,0,0,.46.57.57,0,0,0,.1.26.29.29,0,0,0,.19.11,1.26,1.26,0,0,0,.3,0h1.82v.77h-2.36a2,2,0,0,1-.59-.08.94.94,0,0,1-.4-.28,1.29,1.29,0,0,1-.23-.5,4.13,4.13,0,0,1-.07-.77v-1.73a4.13,4.13,0,0,1,.07-.77,1.36,1.36,0,0,1,.23-.5.94.94,0,0,1,.4-.28,2,2,0,0,1,.59-.08Zm-1.79,2.2h1.3a.72.72,0,0,0,.22,0,.24.24,0,0,0,.14-.1.56.56,0,0,0,.08-.22,2.18,2.18,0,0,0,0-.39,2,2,0,0,0,0-.37.4.4,0,0,0-.07-.21.22.22,0,0,0-.14-.08.75.75,0,0,0-.23,0h-.83a.75.75,0,0,0-.23,0,.33.33,0,0,0-.15.14.53.53,0,0,0-.07.25,2.36,2.36,0,0,0,0,.4Z"/><path class="cls-3" d="M137.76,130.15v.79h-2.39a.39.39,0,0,0-.32.13.75.75,0,0,0-.11.46c0,.39.14.59.43.59H137a1,1,0,0,1,.47.11,1.12,1.12,0,0,1,.34.31,1.18,1.18,0,0,1,.22.45,2.45,2.45,0,0,1,.07.56,2.08,2.08,0,0,1-.29,1.18,1,1,0,0,1-.86.41h-2.91v-.77h2.66a.3.3,0,0,0,.25-.15,1,1,0,0,0,.09-.49.93.93,0,0,0-.09-.47.3.3,0,0,0-.25-.15H135a1.07,1.07,0,0,1-.49-.11,1,1,0,0,1-.35-.32,1.31,1.31,0,0,1-.2-.48,2.22,2.22,0,0,1-.07-.59,1.8,1.8,0,0,1,.29-1.08,1.09,1.09,0,0,1,.91-.38Z"/><path class="cls-3" d="M26.26,137.61a1,1,0,0,1,.48.13,1.21,1.21,0,0,1,.38.37,2.13,2.13,0,0,1,.24.55,2.48,2.48,0,0,1,.09.68v2.86a2.41,2.41,0,0,1-.09.67,1.48,1.48,0,0,1-.24.54,1.06,1.06,0,0,1-.37.36.93.93,0,0,1-.49.14H23.43v-6.3Zm-1.62,5.52h1.1a.37.37,0,0,0,.23-.07.63.63,0,0,0,.18-.21,1.34,1.34,0,0,0,.12-.3,2,2,0,0,0,0-.35v-2.86a2.2,2.2,0,0,0,0-.36,1.34,1.34,0,0,0-.12-.3.7.7,0,0,0-.18-.2.38.38,0,0,0-.23-.08h-1.1Z"/><path class="cls-3" d="M32.73,138.91a.94.94,0,0,1,.78.36,2.36,2.36,0,0,1,0,2.23,1,1,0,0,1-.8.33h-1.8v.45a2.72,2.72,0,0,0,0,.45.57.57,0,0,0,.1.26.31.31,0,0,0,.19.12,1.32,1.32,0,0,0,.3,0h1.82v.78H31a1.64,1.64,0,0,1-.58-.09.88.88,0,0,1-.4-.28,1.22,1.22,0,0,1-.23-.5,3.37,3.37,0,0,1-.07-.77v-1.73a3.33,3.33,0,0,1,.07-.76,1.22,1.22,0,0,1,.23-.5.88.88,0,0,1,.4-.28,1.64,1.64,0,0,1,.58-.09Zm-1.8,2.21h1.31a.73.73,0,0,0,.22,0,.26.26,0,0,0,.14-.1.51.51,0,0,0,.08-.22,3.68,3.68,0,0,0,0-.39,3.21,3.21,0,0,0,0-.36.47.47,0,0,0-.07-.21.19.19,0,0,0-.14-.09l-.23,0h-.83a.57.57,0,0,0-.24,0,.25.25,0,0,0-.14.13.57.57,0,0,0-.08.25c0,.11,0,.25,0,.41Z"/><path class="cls-3" d="M39.84,138.91v.79h-2.4a.37.37,0,0,0-.31.13.69.69,0,0,0-.11.46c0,.4.14.59.42.59h1.65a.91.91,0,0,1,.47.12,1,1,0,0,1,.34.3,1.55,1.55,0,0,1,.21.45,2.35,2.35,0,0,1-.21,1.74,1,1,0,0,1-.86.42H36.13v-.78h2.65A.27.27,0,0,0,39,143a.88.88,0,0,0,.1-.48A.86.86,0,0,0,39,142a.27.27,0,0,0-.25-.15h-1.7a1,1,0,0,1-.49-.11,1,1,0,0,1-.35-.32A1.56,1.56,0,0,1,36,141a2.9,2.9,0,0,1-.07-.6,1.7,1.7,0,0,1,.3-1.07,1.07,1.07,0,0,1,.91-.39Z"/><path class="cls-3" d="M44.8,137.61v1.3h1.56v.79H44.8v2.72a2.24,2.24,0,0,0,0,.4.27.27,0,0,0,.11.21.44.44,0,0,0,.26.09h.5v.78h-.81a2.78,2.78,0,0,1-.64-.06.76.76,0,0,1-.61-.61,3.11,3.11,0,0,1-.05-.66V139.7H42.41v-.79h1.17v-1.3Z"/><path class="cls-3" d="M52.59,139.7H50.77a1.77,1.77,0,0,0-.37,0,.34.34,0,0,0-.23.12.56.56,0,0,0-.11.27,3.34,3.34,0,0,0,0,.5v3.29h-1.2v-3.48a1.45,1.45,0,0,1,.42-1.16,1.92,1.92,0,0,1,1.27-.36h2.07Z"/><path class="cls-3" d="M57.86,138.91a1.64,1.64,0,0,1,.58.09.94.94,0,0,1,.4.28,1.11,1.11,0,0,1,.24.5,3.28,3.28,0,0,1,.08.76v1.73a3.31,3.31,0,0,1-.08.77,1.22,1.22,0,0,1-.23.5.91.91,0,0,1-.41.28,1.64,1.64,0,0,1-.58.09H56.19a1.7,1.7,0,0,1-.59-.09.86.86,0,0,1-.41-.28A1.22,1.22,0,0,1,55,143a4,4,0,0,1-.07-.77v-1.73a4,4,0,0,1,.07-.76,1.22,1.22,0,0,1,.23-.5.86.86,0,0,1,.41-.28,1.7,1.7,0,0,1,.59-.09Zm-1.74,3.35a1.59,1.59,0,0,0,.1.67.38.38,0,0,0,.37.2h.86a.36.36,0,0,0,.37-.2,1.57,1.57,0,0,0,.1-.66v-1.73a1.47,1.47,0,0,0-.1-.64.37.37,0,0,0-.37-.2h-.86a.39.39,0,0,0-.37.2,1.47,1.47,0,0,0-.1.64Z"/><path class="cls-3" d="M62.4,138.91l1.07,3.25h0l1.08-3.25h1l-2.5,6.89H62.05l.81-2-1.77-4.86Z"/><path class="cls-3" d="M76.72,137.61a1.06,1.06,0,0,1,.5.13,1.33,1.33,0,0,1,.38.37,1.83,1.83,0,0,1,.24.55,2.48,2.48,0,0,1,.09.68,2.06,2.06,0,0,1-.13.78,1.11,1.11,0,0,1-.4.53,1,1,0,0,1,.26.25c.07.12.14.24.2.37a2,2,0,0,1,.13.44,2.28,2.28,0,0,1,.05.44,2.56,2.56,0,0,1-.09.69,1.9,1.9,0,0,1-.24.56,1.33,1.33,0,0,1-.38.37,1,1,0,0,1-.5.14H73.92v-6.3Zm-1.6,2.71h1.1c.37,0,.55-.32.55-.95a1.56,1.56,0,0,0-.14-.72.45.45,0,0,0-.41-.25h-1.1Zm0,2.81h1.2a.46.46,0,0,0,.41-.28,1.6,1.6,0,0,0,.15-.74,2.58,2.58,0,0,0,0-.4,2.39,2.39,0,0,0-.11-.32.63.63,0,0,0-.18-.21.38.38,0,0,0-.23-.08h-1.2Z"/><path class="cls-3" d="M83.08,138.91a2.47,2.47,0,0,1,.6.07.79.79,0,0,1,.4.25,1,1,0,0,1,.23.47,3.22,3.22,0,0,1,.07.76v3.45h-3a.84.84,0,0,1-.45-.12,1.22,1.22,0,0,1-.36-.32,1.86,1.86,0,0,1-.24-.49,2.44,2.44,0,0,1,0-1.24,1.79,1.79,0,0,1,.24-.5,1.16,1.16,0,0,1,.36-.34.84.84,0,0,1,.45-.12h1.83v-.43a.9.9,0,0,0-.1-.52.44.44,0,0,0-.37-.13H80.84v-.79Zm-.89,2.64a1.54,1.54,0,0,0-.4,0,.46.46,0,0,0-.24.12.58.58,0,0,0-.13.23,1.75,1.75,0,0,0,0,.35c0,.56.1.84.31.84h1.46v-1.58Z"/><path class="cls-3" d="M89,137.61v1.3h1.57v.79H89v2.72a3.9,3.9,0,0,0,0,.4.27.27,0,0,0,.11.21.47.47,0,0,0,.26.09h.5v.78H89.1a2.84,2.84,0,0,1-.64-.06.81.81,0,0,1-.4-.21.89.89,0,0,1-.2-.4,3,3,0,0,1-.06-.66V139.7H86.64v-.79H87.8v-1.3Z"/><path class="cls-3" d="M95.34,137.61v1.3h1.57v.79H95.34v2.72a3.9,3.9,0,0,0,0,.4.27.27,0,0,0,.11.21.47.47,0,0,0,.26.09h.5v.78h-.81a2.78,2.78,0,0,1-.64-.06.76.76,0,0,1-.61-.61,4,4,0,0,1,0-.66V139.7H93v-.79h1.16v-1.3Z"/><path class="cls-3" d="M101.84,137.32v5.81h1.38v.78h-4v-.78h1.36v-5H99.27v-.79Z"/><path class="cls-3" d="M108.54,138.91a.94.94,0,0,1,.78.36,2.36,2.36,0,0,1,0,2.23,1,1,0,0,1-.8.33h-1.8v.45a2.72,2.72,0,0,0,0,.45.57.57,0,0,0,.1.26.31.31,0,0,0,.19.12,1.32,1.32,0,0,0,.3,0h1.82v.78h-2.37a1.68,1.68,0,0,1-.58-.09.94.94,0,0,1-.4-.28,1.22,1.22,0,0,1-.23-.5,3.37,3.37,0,0,1-.07-.77v-1.73a3.33,3.33,0,0,1,.07-.76,1.22,1.22,0,0,1,.23-.5.94.94,0,0,1,.4-.28,1.68,1.68,0,0,1,.58-.09Zm-1.8,2.21h1.31a.73.73,0,0,0,.22,0,.23.23,0,0,0,.14-.1.51.51,0,0,0,.08-.22,3.68,3.68,0,0,0,0-.39,1.84,1.84,0,0,0,0-.36.37.37,0,0,0-.07-.21.19.19,0,0,0-.14-.09l-.23,0h-.83a.61.61,0,0,0-.24,0,.25.25,0,0,0-.14.13.73.73,0,0,0-.08.25c0,.11,0,.25,0,.41Z"/><path class="cls-3" d="M115.65,138.91v.79h-2.39a.39.39,0,0,0-.32.13.75.75,0,0,0-.11.46c0,.4.14.59.43.59h1.64a.91.91,0,0,1,.47.12,1,1,0,0,1,.34.3,1.55,1.55,0,0,1,.21.45,2.35,2.35,0,0,1-.21,1.74,1,1,0,0,1-.86.42h-2.91v-.78h2.66a.3.3,0,0,0,.25-.15,1,1,0,0,0,.09-.48,1,1,0,0,0-.09-.48.3.3,0,0,0-.25-.15h-1.71a1,1,0,0,1-.49-.11,1,1,0,0,1-.35-.32,1.34,1.34,0,0,1-.2-.47,2.35,2.35,0,0,1-.07-.6,1.7,1.7,0,0,1,.29-1.07,1.07,1.07,0,0,1,.91-.39Z"/><path class="cls-3" d="M119.37,137.32v1.59h1.57a2.15,2.15,0,0,1,.61.08.83.83,0,0,1,.4.25,1.19,1.19,0,0,1,.23.48,3.64,3.64,0,0,1,.07.74v3.45H121v-3.37a2.37,2.37,0,0,0,0-.41.74.74,0,0,0-.07-.26.31.31,0,0,0-.15-.13.48.48,0,0,0-.22,0h-1.2v4.21h-1.21v-6.59Z"/><path class="cls-3" d="M127.13,138.91v4.22h1.35v.78h-3.94v-.78h1.38V139.7h-1.38v-.79Zm.11-1.59v1h-1.43v-1Z"/><path class="cls-3" d="M133.61,138.91a1.68,1.68,0,0,1,.58.09.78.78,0,0,1,.41.27,1.11,1.11,0,0,1,.24.5,3.4,3.4,0,0,1,.08.78v1.72a3.31,3.31,0,0,1-.08.77,1.1,1.1,0,0,1-.22.5.91.91,0,0,1-.41.28,1.8,1.8,0,0,1-.6.09H132v1.89h-1.2v-6.89ZM132,143.13h1.28a.8.8,0,0,0,.23,0,.28.28,0,0,0,.14-.12.67.67,0,0,0,.08-.25,2.18,2.18,0,0,0,0-.39v-1.91a1.53,1.53,0,0,0,0-.41.34.34,0,0,0-.14-.22.52.52,0,0,0-.28-.08l-.45,0H132Z"/><path class="cls-3" d="M32.58,146.38a.91.91,0,0,1,.48.13,1.27,1.27,0,0,1,.37.36,1.85,1.85,0,0,1,.25.55,2.48,2.48,0,0,1,.09.68V151a2.36,2.36,0,0,1-.09.67,1.83,1.83,0,0,1-.24.55,1.19,1.19,0,0,1-.38.36.89.89,0,0,1-.48.13H29.75v-6.29ZM31,151.9h1.1a.38.38,0,0,0,.23-.08.63.63,0,0,0,.18-.21,1,1,0,0,0,.11-.3,1.34,1.34,0,0,0,0-.35V148.1a1.34,1.34,0,0,0,0-.35.82.82,0,0,0-.11-.3.63.63,0,0,0-.18-.21.38.38,0,0,0-.23-.08H31Z"/><path class="cls-3" d="M39.05,147.68a1,1,0,0,1,.78.35,1.8,1.8,0,0,1,.29,1.13,1.76,1.76,0,0,1-.27,1.1,1,1,0,0,1-.8.34h-1.8V151a2.64,2.64,0,0,0,0,.45.71.71,0,0,0,.09.27.33.33,0,0,0,.2.11,1.26,1.26,0,0,0,.3,0h1.82v.77H37.32a1.64,1.64,0,0,1-.58-.09.76.76,0,0,1-.4-.27,1.22,1.22,0,0,1-.23-.5A3.4,3.4,0,0,1,36,151v-1.72a3.31,3.31,0,0,1,.08-.77,1.16,1.16,0,0,1,.23-.5.83.83,0,0,1,.4-.28,1.93,1.93,0,0,1,.58-.08Zm-1.8,2.2h1.31l.21,0a.31.31,0,0,0,.15-.1.76.76,0,0,0,.08-.23,3.47,3.47,0,0,0,0-.38,3.26,3.26,0,0,0,0-.37.52.52,0,0,0-.07-.21.34.34,0,0,0-.14-.09l-.23,0h-.83a.75.75,0,0,0-.24,0,.33.33,0,0,0-.15.14.68.68,0,0,0-.07.25c0,.1,0,.24,0,.4Z"/><path class="cls-3" d="M45,146.09v5.81h1.38v.77h-4v-.77h1.36v-5H42.41v-.78Z"/><path class="cls-3" d="M51.32,147.68v4.22h1.35v.77H48.73v-.77h1.38v-3.44H48.73v-.78Zm.11-1.59v1H50v-1Z"/><path class="cls-3" d="M56,147.68l1,3.78h0l1-3.78h1.24l-1.45,5H56.27l-1.46-5Z"/><path class="cls-3" d="M64.32,147.68a1,1,0,0,1,.78.35,1.8,1.8,0,0,1,.29,1.13,1.76,1.76,0,0,1-.27,1.1,1,1,0,0,1-.8.34h-1.8V151a2.64,2.64,0,0,0,0,.45.57.57,0,0,0,.1.27.3.3,0,0,0,.19.11,1.26,1.26,0,0,0,.3,0H65v.77H62.59a1.64,1.64,0,0,1-.58-.09.8.8,0,0,1-.4-.27,1.22,1.22,0,0,1-.23-.5,3.46,3.46,0,0,1-.07-.78v-1.72a3.37,3.37,0,0,1,.07-.77,1.16,1.16,0,0,1,.23-.5.88.88,0,0,1,.4-.28,1.93,1.93,0,0,1,.58-.08Zm-1.8,2.2h1.31l.21,0a.31.31,0,0,0,.15-.1.76.76,0,0,0,.08-.23,3.47,3.47,0,0,0,0-.38,3.26,3.26,0,0,0,0-.37.52.52,0,0,0-.07-.21.28.28,0,0,0-.14-.09l-.23,0H63a.75.75,0,0,0-.24,0,.33.33,0,0,0-.15.14.68.68,0,0,0-.07.25c0,.1,0,.24,0,.4Z"/><path class="cls-3" d="M71.54,148.46H69.72a1.83,1.83,0,0,0-.37,0,.42.42,0,0,0-.23.12.61.61,0,0,0-.11.28c0,.12,0,.29,0,.49v3.29H67.78V149.2A1.43,1.43,0,0,1,68.2,148a1.94,1.94,0,0,1,1.27-.36h2.07Z"/><path class="cls-3" d="M82.7,146.38v1.3h1.57v.78H82.7v2.72a3.74,3.74,0,0,0,0,.4.36.36,0,0,0,.11.22.58.58,0,0,0,.27.08l.49,0v.77h-.81a2.84,2.84,0,0,1-.64-.06.73.73,0,0,1-.6-.61,2.93,2.93,0,0,1-.06-.65v-2.89H80.32v-.78h1.16v-1.3Z"/><path class="cls-3" d="M87.78,146.09v1.59h1.58a2.06,2.06,0,0,1,.6.07.83.83,0,0,1,.4.25,1.08,1.08,0,0,1,.23.48,3.71,3.71,0,0,1,.07.74v3.45H89.45v-3.36c0-.17,0-.31,0-.42a.92.92,0,0,0-.08-.25.37.37,0,0,0-.14-.14.73.73,0,0,0-.23,0h-1.2v4.21H86.57v-6.58Z"/><path class="cls-3" d="M95.91,147.68a1,1,0,0,1,.78.35,1.8,1.8,0,0,1,.29,1.13,1.76,1.76,0,0,1-.27,1.1,1,1,0,0,1-.8.34h-1.8V151a2.64,2.64,0,0,0,0,.45.57.57,0,0,0,.09.27.33.33,0,0,0,.19.11,1.26,1.26,0,0,0,.3,0h1.83v.77H94.18a1.74,1.74,0,0,1-.59-.09.77.77,0,0,1-.39-.27,1.22,1.22,0,0,1-.23-.5,3.4,3.4,0,0,1-.08-.78v-1.72a3.31,3.31,0,0,1,.08-.77,1.16,1.16,0,0,1,.23-.5.85.85,0,0,1,.39-.28,2.05,2.05,0,0,1,.59-.08Zm-1.8,2.2h1.31l.21,0a.31.31,0,0,0,.15-.1.57.57,0,0,0,.07-.23,1.87,1.87,0,0,0,0-.38,3.26,3.26,0,0,0,0-.37.73.73,0,0,0-.07-.21.34.34,0,0,0-.14-.09l-.23,0h-.84a.73.73,0,0,0-.23,0,.33.33,0,0,0-.15.14.68.68,0,0,0-.07.25,2.3,2.3,0,0,0,0,.4Z"/><path class="cls-3" d="M108.31,146.38a.9.9,0,0,1,.49.13,1.33,1.33,0,0,1,.39.36,2.13,2.13,0,0,1,.24.55,2.48,2.48,0,0,1,.09.68,2,2,0,0,1-.13.78,1.06,1.06,0,0,1-.4.53.89.89,0,0,1,.25.26,1.88,1.88,0,0,1,.21.37,2.7,2.7,0,0,1,.13.43,2.28,2.28,0,0,1,0,.44,2.5,2.5,0,0,1-.09.69,2.06,2.06,0,0,1-.24.56,1.24,1.24,0,0,1-.39.37.91.91,0,0,1-.49.14h-2.91v-6.29Zm-1.6,2.7h1.1c.36,0,.55-.32.55-.94a1.53,1.53,0,0,0-.14-.72.46.46,0,0,0-.41-.26h-1.1Zm0,2.82h1.2a.45.45,0,0,0,.4-.29,1.45,1.45,0,0,0,.16-.74,2.34,2.34,0,0,0,0-.39,1.33,1.33,0,0,0-.12-.32.76.76,0,0,0-.17-.22.37.37,0,0,0-.23-.07h-1.2Z"/><path class="cls-3" d="M114.75,146.38a.92.92,0,0,1,.49.13,1.19,1.19,0,0,1,.38.36,1.85,1.85,0,0,1,.25.55,2.48,2.48,0,0,1,.09.68V151a2.41,2.41,0,0,1-.09.67,1.65,1.65,0,0,1-.24.54,1.19,1.19,0,0,1-.38.36.92.92,0,0,1-.5.14H113a.92.92,0,0,1-.49-.13,1.12,1.12,0,0,1-.38-.37,1.79,1.79,0,0,1-.25-.54,2.41,2.41,0,0,1-.09-.67V148.1a2.48,2.48,0,0,1,.09-.68,1.85,1.85,0,0,1,.25-.55,1.19,1.19,0,0,1,.38-.36.92.92,0,0,1,.49-.13ZM113,151a1.34,1.34,0,0,0,0,.35,1.32,1.32,0,0,0,.1.3.63.63,0,0,0,.18.21.41.41,0,0,0,.24.08h.7a.43.43,0,0,0,.24-.08.6.6,0,0,0,.17-.21,1.1,1.1,0,0,0,.11-.29,1.37,1.37,0,0,0,0-.36V148.1a1.42,1.42,0,0,0,0-.36,1,1,0,0,0-.11-.3.59.59,0,0,0-.18-.2.4.4,0,0,0-.23-.08h-.7a.41.41,0,0,0-.24.08.74.74,0,0,0-.17.21.82.82,0,0,0-.11.3,1.34,1.34,0,0,0,0,.35Z"/><path class="cls-3" d="M119.38,146.38l.82,4.79.81-4.79h1.21v6.29h-.89v-4l-.67,4h-1l-.63-4v4h-.91v-6.29Z"/><path class="cls-3" d="M127.26,146.38a1,1,0,0,1,.5.13,1.43,1.43,0,0,1,.38.36,1.61,1.61,0,0,1,.24.55,2.48,2.48,0,0,1,.09.68,2.21,2.21,0,0,1-.12.78,1.14,1.14,0,0,1-.41.53,1.07,1.07,0,0,1,.26.26,1.86,1.86,0,0,1,.2.37,2,2,0,0,1,.13.43,2.28,2.28,0,0,1,.05.44,2.5,2.5,0,0,1-.09.69,1.79,1.79,0,0,1-.24.56,1.33,1.33,0,0,1-.38.37,1,1,0,0,1-.5.14h-2.91v-6.29Zm-1.59,2.7h1.09c.37,0,.55-.32.55-.94a1.53,1.53,0,0,0-.14-.72.45.45,0,0,0-.41-.26h-1.09Zm0,2.82h1.19a.48.48,0,0,0,.41-.29,1.57,1.57,0,0,0,.15-.74,2.34,2.34,0,0,0,0-.39,1.33,1.33,0,0,0-.11-.32.79.79,0,0,0-.18-.22.37.37,0,0,0-.23-.07h-1.19Z"/><path class="cls-3" d="M27.16,155.14v.79H25.11a.37.37,0,0,0-.23.07.45.45,0,0,0-.17.19,1.17,1.17,0,0,0-.11.28,1.87,1.87,0,0,0,0,.34,1.29,1.29,0,0,0,.15.66.45.45,0,0,0,.39.25h1.06a1.16,1.16,0,0,1,.56.13,1.18,1.18,0,0,1,.4.37,1.74,1.74,0,0,1,.25.55,3.15,3.15,0,0,1,.08.71,3,3,0,0,1-.09.76,2.59,2.59,0,0,1-.25.63,1.4,1.4,0,0,1-.39.41.91.91,0,0,1-.5.15h-2.6v-.77h2.09a.44.44,0,0,0,.25-.08.69.69,0,0,0,.19-.22,1.17,1.17,0,0,0,.11-.33,1.84,1.84,0,0,0,0-.41,1.89,1.89,0,0,0,0-.44.58.58,0,0,0-.15-.28.59.59,0,0,0-.27-.15,1.4,1.4,0,0,0-.44-.05h-.68a1.2,1.2,0,0,1-.57-.13,1.18,1.18,0,0,1-.41-.36,1.48,1.48,0,0,1-.26-.55,3.08,3.08,0,0,1-.08-.71,3.13,3.13,0,0,1,.08-.7,2.35,2.35,0,0,1,.24-.58,1.41,1.41,0,0,1,.38-.39,1,1,0,0,1,.5-.14Z"/><path class="cls-3" d="M30.91,156.44v3.37c0,.18,0,.32,0,.43a.73.73,0,0,0,.08.26.29.29,0,0,0,.14.13.75.75,0,0,0,.23,0h1.21v-4.22H33.8v5H31a2,2,0,0,1-.59-.07.8.8,0,0,1-.39-.25,1,1,0,0,1-.23-.47,3.09,3.09,0,0,1-.07-.74v-3.46Z"/><path class="cls-3" d="M40,157.23H38.13l-.37,0a.42.42,0,0,0-.23.12.55.55,0,0,0-.1.28,3.25,3.25,0,0,0,0,.5v3.28H36.19V158a1.41,1.41,0,0,1,.43-1.16,1.89,1.89,0,0,1,1.26-.36H40Z"/><path class="cls-3" d="M43.4,156.44l1,3.79h0l1-3.79h1.24l-1.45,5H43.63l-1.46-5Z"/><path class="cls-3" d="M51.32,156.44v4.22h1.35v.77H48.73v-.77h1.38v-3.43H48.73v-.79Zm.11-1.59v1H50v-1Z"/><path class="cls-3" d="M56,156.44l1,3.79h0l1-3.79h1.24l-1.45,5H56.27l-1.46-5Z"/><path class="cls-3" d="M64.32,156.44a1,1,0,0,1,.78.35,2.38,2.38,0,0,1,0,2.24,1,1,0,0,1-.8.33h-1.8v.45a2.81,2.81,0,0,0,0,.45.57.57,0,0,0,.1.26.27.27,0,0,0,.19.11,1.26,1.26,0,0,0,.3,0H65v.77H62.59a1.66,1.66,0,0,1-.58-.08.88.88,0,0,1-.4-.28,1.16,1.16,0,0,1-.23-.5,3.43,3.43,0,0,1-.07-.77v-1.73a3.43,3.43,0,0,1,.07-.77,1.22,1.22,0,0,1,.23-.5.8.8,0,0,1,.4-.27,1.64,1.64,0,0,1,.58-.09Zm-1.8,2.2h1.31a.68.68,0,0,0,.21,0,.25.25,0,0,0,.15-.1.79.79,0,0,0,.08-.22,3.84,3.84,0,0,0,0-.39,3.41,3.41,0,0,0,0-.37.42.42,0,0,0-.07-.2.19.19,0,0,0-.14-.09.79.79,0,0,0-.23,0H63a.55.55,0,0,0-.24,0,.31.31,0,0,0-.15.13.75.75,0,0,0-.07.25c0,.11,0,.24,0,.4Z"/><path class="cls-3" d="M76.59,156.44v4.22h1.35v.77H74v-.77h1.38v-3.43H74v-.79Zm.11-1.59v1H75.27v-1Z"/><path class="cls-3" d="M81.47,156.44a3.54,3.54,0,0,1,.07-.8,1.07,1.07,0,0,1,.22-.48.79.79,0,0,1,.4-.24,2,2,0,0,1,.58-.07h1.53v.79h-1.1a.8.8,0,0,0-.23,0,.31.31,0,0,0-.16.12.67.67,0,0,0-.09.24,2.43,2.43,0,0,0,0,.41h1.08v.79H82.67v4.2h-1.2v-4.2H80.32v-.79Z"/><path class="cls-3" d="M94,156.44l1.08,3.25h0l1.08-3.25h1l-2.5,6.89H93.63l.81-2-1.77-4.86Z"/><path class="cls-3" d="M102.09,156.44a1.62,1.62,0,0,1,.57.09.8.8,0,0,1,.4.27,1.23,1.23,0,0,1,.24.5,3.37,3.37,0,0,1,.08.77v1.73a3.37,3.37,0,0,1-.08.77,1.06,1.06,0,0,1-.23.5.94.94,0,0,1-.4.28,1.73,1.73,0,0,1-.58.08h-1.67a1.74,1.74,0,0,1-.6-.08.91.91,0,0,1-.41-.28,1.15,1.15,0,0,1-.22-.5,3.43,3.43,0,0,1-.07-.77v-1.73a3.43,3.43,0,0,1,.07-.77,1.21,1.21,0,0,1,.22-.5.82.82,0,0,1,.41-.27,1.72,1.72,0,0,1,.6-.09Zm-1.75,3.34a1.47,1.47,0,0,0,.11.68.38.38,0,0,0,.37.2h.85a.4.4,0,0,0,.38-.2,1.75,1.75,0,0,0,.1-.66v-1.73a1.6,1.6,0,0,0-.1-.64.38.38,0,0,0-.38-.2h-.85a.37.37,0,0,0-.37.2,1.29,1.29,0,0,0-.11.64Z"/><path class="cls-3" d="M106.72,156.44v3.37c0,.18,0,.32,0,.43a.73.73,0,0,0,.08.26.29.29,0,0,0,.14.13.78.78,0,0,0,.24,0h1.2v-4.22h1.21v5h-2.8a2.06,2.06,0,0,1-.6-.07.8.8,0,0,1-.39-.25,1,1,0,0,1-.23-.47,3.09,3.09,0,0,1-.07-.74v-3.46Z"/><path class="cls-3" d="M122.17,156.44v.79h-2.24a.53.53,0,0,0-.23,0,.31.31,0,0,0-.15.13,1.05,1.05,0,0,0-.07.26,2.37,2.37,0,0,0,0,.41v1.81c0,.4.08.64.25.73a3,3,0,0,0,.82.06h1.64v.77h-2.64a1.72,1.72,0,0,1-.59-.08.88.88,0,0,1-.4-.28,1.16,1.16,0,0,1-.23-.5,3.37,3.37,0,0,1-.08-.77v-1.73a3.37,3.37,0,0,1,.08-.77,1.22,1.22,0,0,1,.23-.5.8.8,0,0,1,.4-.27,1.7,1.7,0,0,1,.59-.09Z"/><path class="cls-3" d="M127.3,156.44a2.06,2.06,0,0,1,.6.07.86.86,0,0,1,.41.25,1.08,1.08,0,0,1,.22.47,3.18,3.18,0,0,1,.07.75v3.45h-3a1,1,0,0,1-.45-.11,1.13,1.13,0,0,1-.36-.33,1.39,1.39,0,0,1-.23-.49,2.15,2.15,0,0,1,0-1.23,1.53,1.53,0,0,1,.23-.5,1.06,1.06,0,0,1,.36-.34.89.89,0,0,1,.45-.12h1.83v-.43a.9.9,0,0,0-.1-.52.43.43,0,0,0-.36-.13h-1.86v-.79Zm-.89,2.63a2,2,0,0,0-.39,0,.54.54,0,0,0-.25.13.46.46,0,0,0-.12.23,1.13,1.13,0,0,0,0,.34c0,.57.1.85.31.85h1.47v-1.59Z"/><path class="cls-3" d="M133.58,156.44a2,2,0,0,1,.59.07.79.79,0,0,1,.4.25,1.09,1.09,0,0,1,.23.47,3.92,3.92,0,0,1,.06.75v3.45h-1.19v-3.36c0-.17,0-.31,0-.41a.73.73,0,0,0-.08-.26.31.31,0,0,0-.15-.13.46.46,0,0,0-.21,0H132v4.2H130.8v-5Z"/><polygon class="cls-4" points="148.23 163.63 79.87 212.22 12.18 162.69 12.86 64.58 81.22 15.99 148.9 65.52 148.23 163.63"/></g></g></svg>